<svg width="33" height="34" viewBox="0 0 33 34" fill="none" xmlns="http://www.w3.org/2000/svg">
<path d="M30.5 25.75L18 25.75V32C17.9999 32.2472 17.9266 32.4888 17.7893 32.6943C17.6519 32.8998 17.4567 33.06 17.2283 33.1546C16.9999 33.2492 16.7487 33.2739 16.5062 33.2257C16.2638 33.1775 16.0411 33.0585 15.8662 32.8837L0.866249 17.8837C0.631908 17.6493 0.500267 17.3314 0.500267 17C0.500267 16.6685 0.631908 16.3506 0.866249 16.1162L15.8662 1.11623C16.0411 0.941466 16.2638 0.822458 16.5062 0.774248C16.7487 0.726039 16.9999 0.750793 17.2283 0.84538C17.4567 0.939968 17.6519 1.10014 17.7893 1.30565C17.9266 1.51117 17.9999 1.75279 18 1.99998V8.24998L30.5 8.24998C31.1628 8.25064 31.7983 8.51424 32.267 8.98294C32.7357 9.45164 32.9993 10.0871 33 10.75L33 23.25C32.999 23.9127 32.7353 24.548 32.2667 25.0166C31.798 25.4853 31.1627 25.749 30.5 25.75ZM3.5175 17L15.5 28.9825V23.25L30.5 23.25L30.5 10.75L15.5 10.75L15.5 5.01748L3.5175 17Z" fill="white"/>
</svg>
